<?xml version="1.0" encoding="UTF-8"?>
<svg id="Camada_1" data-name="Camada 1" xmlns="http://www.w3.org/2000/svg" xmlns:xlink="http://www.w3.org/1999/xlink" viewBox="0 0 500 152">
  <defs>
    <style>
      .cls-1 {
        fill: #505050;
      }

      .cls-1, .cls-2, .cls-3, .cls-4 {
        stroke-width: 0px;
      }

      .cls-2 {
        fill: url(#Gradiente_sem_nome_15);
      }

      .cls-3 {
        fill: #3972ec;
      }

      .cls-4 {
        fill: url(#Gradiente_sem_nome_15-2);
      }
    </style>
    <linearGradient id="Gradiente_sem_nome_15" data-name="Gradiente sem nome 15" x1="70.37" y1="31.27" x2="111.21" y2="102.01" gradientUnits="userSpaceOnUse">
      <stop offset="0" stop-color="#194fa5"/>
      <stop offset="1" stop-color="#3972ec"/>
    </linearGradient>
    <linearGradient id="Gradiente_sem_nome_15-2" data-name="Gradiente sem nome 15" x1="167.32" y1="4.87" x2="197.87" y2="57.78" xlink:href="#Gradiente_sem_nome_15"/>
  </defs>
  <g>
    <path class="cls-1" d="M212,13.5h36.28v8.45h-13.23v37.39h-9.82V21.95h-13.23v-8.45Z"/>
    <path class="cls-1" d="M261.51,13.5v26.59c0,3.71.72,6.51,2.16,8.38,1.44,1.88,3.71,2.82,6.81,2.82s5.38-.94,6.84-2.82c1.46-1.88,2.19-4.67,2.19-8.38V13.5h9.82v26.06c0,6.55-1.6,11.55-4.81,15-3.21,3.45-7.89,5.17-14.05,5.17s-10.83-1.72-14.01-5.17c-3.19-3.45-4.78-8.45-4.78-15V13.5h9.82Z"/>
    <path class="cls-1" d="M295.23,13.5h15.91c4.58,0,8.63.97,12.15,2.91,3.51,1.94,6.22,4.65,8.12,8.12,1.9,3.47,2.85,7.43,2.85,11.89s-.95,8.42-2.85,11.89-4.61,6.18-8.12,8.12c-3.51,1.94-7.56,2.91-12.15,2.91h-15.91V13.5ZM311.15,51.15c4.15,0,7.37-1.34,9.66-4.03,2.29-2.68,3.44-6.25,3.44-10.71s-1.15-8.02-3.44-10.71c-2.29-2.68-5.51-4.03-9.66-4.03h-6.09v29.47h6.09Z"/>
    <path class="cls-1" d="M379.38,48.37c-1.92,3.56-4.61,6.34-8.05,8.35-3.45,2.01-7.38,3.01-11.79,3.01s-8.34-1-11.79-3.01c-3.45-2.01-6.13-4.79-8.05-8.35-1.92-3.56-2.88-7.54-2.88-11.95s.96-8.39,2.88-11.95c1.92-3.56,4.61-6.34,8.05-8.35,3.45-2.01,7.38-3.01,11.79-3.01s8.34,1,11.79,3.01c3.45,2.01,6.13,4.79,8.05,8.35,1.92,3.56,2.88,7.54,2.88,11.95s-.96,8.39-2.88,11.95ZM348.41,44.15c1.05,2.27,2.53,4.05,4.45,5.34,1.92,1.29,4.15,1.93,6.68,1.93s4.69-.64,6.61-1.93c1.92-1.29,3.41-3.07,4.45-5.34,1.05-2.27,1.57-4.85,1.57-7.73s-.52-5.46-1.57-7.73c-1.05-2.27-2.53-4.05-4.45-5.34-1.92-1.29-4.13-1.93-6.61-1.93s-4.76.64-6.68,1.93c-1.92,1.29-3.41,3.07-4.45,5.34-1.05,2.27-1.57,4.85-1.57,7.73s.52,5.46,1.57,7.73Z"/>
    <path class="cls-1" d="M401.19,13.5h30.78v8.45h-20.96v10.28h17.03v8.05h-17.03v10.61h21.68v8.45h-31.5V13.5Z"/>
    <path class="cls-1" d="M436.94,13.5h12.9l12.7,33.66,12.31-33.66h12.64v45.84h-9.36v-30.71l-11.92,30.71h-7.99l-11.92-30.71v30.71h-9.36V13.5Z"/>
  </g>
  <g>
    <path class="cls-1" d="M199.1,121.51c-3.13,5.79-7.49,10.31-13.1,13.58-5.61,3.27-12,4.9-19.17,4.9s-13.56-1.63-19.17-4.9c-5.61-3.26-9.98-7.79-13.1-13.58-3.13-5.79-4.69-12.26-4.69-19.44s1.56-13.65,4.69-19.44c3.12-5.79,7.49-10.31,13.1-13.58,5.61-3.27,12-4.9,19.17-4.9s13.56,1.63,19.17,4.9c5.61,3.27,9.97,7.79,13.1,13.58,3.12,5.79,4.69,12.27,4.69,19.44s-1.56,13.65-4.69,19.44ZM148.72,114.64c1.7,3.69,4.12,6.59,7.24,8.68,3.12,2.1,6.74,3.14,10.86,3.14s7.63-1.05,10.76-3.14c3.12-2.09,5.54-4.99,7.24-8.68,1.7-3.69,2.56-7.88,2.56-12.57s-.85-8.87-2.56-12.57c-1.7-3.69-4.12-6.58-7.24-8.68-3.13-2.09-6.71-3.14-10.76-3.14s-7.74,1.05-10.86,3.14c-3.12,2.1-5.54,4.99-7.24,8.68-1.7,3.69-2.56,7.88-2.56,12.57s.85,8.88,2.56,12.57Z"/>
    <path class="cls-1" d="M241.16,64.8c5.39,0,10.17,1.01,14.32,3.04,4.15,2.02,7.37,4.92,9.64,8.68,2.27,3.76,3.41,8.13,3.41,13.1s-1.14,8.96-3.41,12.62c-2.27,3.66-5.4,6.44-9.37,8.36l14.7,28.76h-17.68l-12.46-25.03h-13.53v25.03h-15.98v-74.55h30.35ZM226.79,101.01h13.1c3.76,0,6.76-1.03,9-3.09,2.24-2.06,3.35-4.83,3.35-8.31s-1.12-6.35-3.35-8.41c-2.24-2.06-5.24-3.09-9-3.09h-13.1v22.9Z"/>
    <path class="cls-1" d="M276.52,64.8h25.88c7.45,0,14.04,1.58,19.76,4.74,5.71,3.16,10.12,7.56,13.21,13.21,3.09,5.64,4.63,12.09,4.63,19.33s-1.54,13.69-4.63,19.33c-3.09,5.64-7.49,10.05-13.21,13.21-5.72,3.16-12.3,4.74-19.76,4.74h-25.88v-74.55ZM302.4,126.04c6.74,0,11.98-2.18,15.71-6.55,3.73-4.37,5.59-10.17,5.59-17.41s-1.86-13.05-5.59-17.41c-3.73-4.37-8.96-6.55-15.71-6.55h-9.9v47.93h9.9Z"/>
    <path class="cls-1" d="M347.13,64.8h50.06v13.74h-34.08v16.72h27.69v13.1h-27.69v17.25h35.25v13.74h-51.23v-74.55Z"/>
    <path class="cls-1" d="M405.28,64.8h20.98l20.66,54.74,20.02-54.74h20.55v74.55h-15.23v-49.95l-19.38,49.95h-12.99l-19.38-49.95v49.95h-15.23v-74.55Z"/>
  </g>
  <polygon class="cls-2" points="107.95 103.9 96.55 103.9 58.09 38.37 90.85 38.37 107.95 103.9"/>
  <polygon class="cls-4" points="154.96 12.01 189.15 12.01 195.16 59.34 181.07 59.34 154.96 12.01"/>
  <polygon class="cls-3" points="96.55 103.9 107.95 103.9 189.15 12.01 154.96 12.01 96.55 103.9"/>
  <polygon class="cls-3" points="12.5 137.37 25.69 137.37 90.85 38.37 58.4 38.37 12.5 137.37"/>
</svg>